<?xml version="1.0" encoding="utf-8" ?>
<svg xmlns="http://www.w3.org/2000/svg" xmlns:xlink="http://www.w3.org/1999/xlink" width="1024" height="1024">
	<path fill="#C99570" d="M0 0L0.521477 0L394.824 0L403.606 0L1024 0L1024 368.25L1024 409.721L1024 475.525L1024 887.895L1024 918.685L1024 972.992L1024 981.213L1024 1024L0 1024L0 981.236L0 973.119L0 919.07L0 888.395L0 476.792L0 409.911L0 368.114L0 101.292L0 84.3308L0 0Z"/>
	<path fill="#01011E" d="M41.2451 460.39L370.247 460.507C369.823 466.084 370.022 471.743 370.036 477.334C356.831 477.691 343.564 477.455 330.349 477.464L258.123 477.501L41.4741 477.363C41.5056 471.723 41.7269 466.012 41.2451 460.39Z"/>
	<path fill="#FEFEFE" d="M616.2 507.499C633.871 516.036 649.315 532.752 661.509 547.932C666.463 541.658 677.409 527.385 685.583 526.635C687.098 526.496 688.165 526.767 689.313 527.831C695.863 533.902 712.67 575.457 716.089 586.05C718.184 592.543 720.5 600.21 720.567 607.086C720.896 640.919 687.314 657.588 685.866 671.851C685.012 680.258 693.933 690.585 699.408 696.049C713.633 710.245 731.07 722.695 745.789 736.8C781.567 771.084 811.427 821.18 811.628 871.885Q811.687 879.98 810.551 887.995C835.771 888.495 861.059 887.993 886.287 887.973L1024 887.895L1024 918.685L1024 972.992L1024 981.213L1024 1024L0 1024L0 981.236L0 973.119L0 919.07L0 888.395L393.751 888.031L527.633 888.065C549.581 888.088 571.67 888.69 593.602 888.188C595.166 888.152 596.177 888.274 597.266 887.11C594.298 860.393 590.65 829.613 583.611 803.726C581.818 797.134 578.973 790.777 576.678 784.338C572.036 771.313 567.971 757.434 566.239 743.694Q565.882 740.84 565.738 737.968Q565.594 735.096 565.664 732.22Q565.735 729.345 566.02 726.484Q566.304 723.622 566.801 720.789C567.979 713.966 570.232 707.351 571.833 700.62C574.713 688.51 575.611 672.951 571.012 661.217C567.746 652.881 562.04 645.944 557.753 638.153C555.977 634.925 552.899 629.716 553.972 626.059L552.846 625.68C552.559 625.157 552.375 624.864 552.157 624.341C550.238 619.743 552.104 613.676 553.856 609.309C552.726 607.149 551.704 605.193 552.301 602.707C553.071 601.727 553.226 601.594 554.384 601.139C560.025 596.479 564.371 591.111 568.567 585.139C572.613 579.38 576.106 573.236 580.188 567.512C589.643 554.255 603.697 550.098 618.774 546.176C621.695 532.702 617.345 520.797 616.2 507.499Z"/>
	<path fill="#01011E" d="M553.856 609.309C552.726 607.149 551.704 605.193 552.301 602.707C553.071 601.727 553.226 601.594 554.384 601.139C556.972 601.72 560.196 602.098 561.76 604.472C561.673 605.832 561.405 606.417 560.391 607.373C556.989 610.578 552.218 612.451 551.807 617.758C551.653 619.747 552.399 621.224 553.345 622.915C559.005 626.781 565.931 631.075 571.156 635.339C563.323 632.93 560.422 628.622 553.972 626.059L552.846 625.68C552.559 625.157 552.375 624.864 552.157 624.341C550.238 619.743 552.104 613.676 553.856 609.309Z"/>
	<path fill="#246DD0" d="M583.299 598.622C584.759 595.224 587.32 592.39 590.785 590.939C594.634 589.327 599.465 589.47 603.25 591.198C608.114 593.419 611.805 597.813 613.576 602.806Q613.751 603.304 613.913 603.806C611.77 609.102 608.706 613.494 603.3 615.906C599.197 617.737 594.519 617.725 590.352 616.106C587.807 615.117 585.871 613.712 583.986 611.763C583.487 610.978 583.035 610.226 582.681 609.362C581.109 605.528 581.661 602.32 583.299 598.622Z"/>
	<path fill="#01011E" d="M583.299 598.622L584.152 598.081C588.384 595.351 590.735 592.032 596.489 593.014C598.117 593.293 599.531 594.159 600.471 595.526C601.968 597.704 602.137 600.758 601.606 603.272C600.79 607.129 598.755 609.374 595.798 611.819C591.646 612.49 588.157 612.496 583.986 611.763C583.487 610.978 583.035 610.226 582.681 609.362C581.109 605.528 581.661 602.32 583.299 598.622Z"/>
	<path fill="#01011E" d="M698.997 838.23C701.067 840.28 700.463 845.931 700.444 848.753C700.303 868.967 695.635 888.955 688.23 907.684C685.148 915.481 681.129 923.36 678.915 931.448C678.214 934.009 677.431 938.083 678.667 940.602C680.338 944.008 690.312 945.78 693.865 946.744C683.623 947.627 674.825 947.918 667.375 956.101C665.511 958.478 663.312 964.067 660.435 964.957L659.814 964.21C657.574 954.156 676.547 916.677 681.241 905.255C683.976 898.602 686.137 891.669 688.316 884.818C693.213 869.421 695.731 853.988 698.997 838.23Z"/>
	<path fill="#01011E" d="M585.376 782.884C590.272 787.399 599.268 804.088 603.618 810.649C607.437 816.409 611.898 821.863 615.475 827.758C616.862 830.045 617.929 832.444 618.843 834.954C623.592 847.994 625.371 861.979 627.766 875.579C628.948 882.29 631.426 888.652 632.799 895.306C636.232 911.939 633.607 933.224 626.498 948.608C625.011 949.903 623.387 950.726 621.647 951.637C626.592 934.032 629.641 906.221 624.921 888.799C621.675 876.818 615.979 865.176 611.974 853.381C607.883 841.329 605.043 828.325 600.113 816.643C595.273 805.175 589.008 794.94 585.376 782.884Z"/>
	<path fill="#FAB688" d="M684.747 530.429C685.473 530.451 686.448 530.379 687.088 530.783C687.831 531.254 688.316 532.313 688.628 533.108C693.257 544.913 694.42 574.397 689.374 585.847C687.235 590.702 684.455 593.616 679.537 595.566C675.541 593.07 671.728 590.334 667.893 587.601C660.635 582.434 653.891 575.817 650.45 567.499C654.102 561.722 678.767 535.175 684.747 530.429Z"/>
	<path fill="#01011E" d="M805.278 903.118C808.904 906.269 810.304 909 811.579 913.593C824.808 920.157 843.709 922.101 857.808 917.277C867.009 914.129 876.627 902.962 886.951 908.254C891.383 910.525 894.165 914.678 896.364 918.982C896.962 924.325 896.391 928.272 892.815 932.586C881.658 946.05 854.667 949.839 838.282 950.995C820.093 952.279 792.433 952.722 777.654 941.015C775.301 938.685 772.878 935.563 772.875 932.094C772.867 923.785 788.025 918.235 793.662 914.042C797.919 910.876 801.609 906.93 805.278 903.118Z"/>
	<path fill="#FAB688" d="M0 919.07L377.059 919.197L519.336 919.209C545.684 919.209 572.154 918.81 598.491 919.388C598.549 926.087 599.03 933.191 597.886 939.816C597.741 939.915 597.599 940.016 597.453 940.112C592.507 943.37 584.071 944.298 582.38 950.958C581.778 953.329 582.141 956.532 583.469 958.615C584.003 959.452 584.631 959.939 585.464 960.474C586.617 960.108 586.56 960.106 587.084 959.076C588.467 956.36 588.485 952.086 591.531 950.685L592.015 951.18C591.644 954.735 588.274 957.289 589.318 960.998C590.23 961.795 591.325 962.099 592.54 962.044C593.661 961.992 594.033 961.862 594.724 960.973C596.63 958.522 597.242 954.113 600.301 952.726L601.032 953.146C599.879 955.619 596.885 959.533 597.68 962.274C599.057 963.718 601.63 963.602 603.503 963.652C608.928 963.799 614.496 963.569 619.805 962.387C618.278 963.937 616.91 965.293 615.855 967.226C615.515 969.196 615.461 971.05 615.484 973.047C541.229 974.128 466.849 973.128 392.58 973.145L0 973.119L0 919.07Z"/>
	<path fill="#FAB688" d="M1024 918.685L1024 972.992L1024 981.213L1024 1024L0 1024L0 981.236L425.224 981.163L543.888 980.979C568.33 980.887 592.839 980.32 617.271 980.998C617.255 978.79 617.514 976.708 617.81 974.529C618.826 971.573 619.822 968.563 622.194 966.402L623.27 966.301C623.352 970.593 616.857 975.938 620.663 982.822L621.57 983.348C625.167 981.048 624.142 972.854 629.062 968.088C629.863 967.313 630.438 966.358 631.576 966.51C630.152 970.475 624.146 977.877 625.921 981.875C626.36 982.863 627.078 983.554 628.125 983.92C633.272 985.717 645.402 981.557 650.625 979.967C656.188 980.007 662.149 980.504 667.658 979.766C667.56 978.129 666.734 976.882 666.012 975.434C662.586 975.653 659.053 975.15 655.635 974.841C657.523 972.858 658.934 970.438 660.435 968.158L665.614 968.497C666.257 966.508 666.872 964.617 667.112 962.527C667.129 962.381 667.142 962.234 667.156 962.088C668.128 960.75 668.991 959.718 670.287 958.685C671.164 962.396 665.935 969.806 668.056 975.839C668.525 977.173 669.285 977.958 670.526 978.559C671.763 976.546 669.815 969.819 673.088 965.208C673.245 964.987 673.436 964.789 673.567 964.553C674.175 963.463 674.39 962.708 675.296 961.766C676.416 960.6 677.449 959.958 679.035 959.913C679.119 960.231 679.295 960.54 679.286 960.869C679.268 961.546 672.317 967.581 672.729 974.743C672.818 976.287 672.809 977.809 674.165 978.765C675.072 979.404 676.145 979.584 677.196 979.413C676.944 976.114 678.44 974.412 679.44 971.52C680.272 969.112 680.904 967.005 683.058 965.464L683.729 965.692C683.72 967.844 682.423 969.72 681.443 971.582C703.982 971.093 735.833 965.454 756.029 955.17C763.83 951.198 770.474 945.933 777.654 941.015C792.433 952.722 820.093 952.279 838.282 950.995C854.667 949.839 881.658 946.05 892.815 932.586C896.391 928.272 896.962 924.325 896.364 918.982C911.09 918.649 925.874 918.864 940.607 918.82L1024 918.685Z"/>
	<path fill="#FEFEFE" d="M1024 981.213L760.988 981.121L702.594 980.968C696.607 980.949 688.297 982.281 682.621 980.778C681.04 980.359 680.449 979.715 679.689 978.32C679.666 976.777 679.608 975.476 680.155 973.999C680.508 973.799 680.815 973.473 681.214 973.399C684.113 972.854 696.993 973.532 700.952 973.512L766.171 973.208L1024 972.992L1024 981.213Z"/>
	<path fill="#FEFEFE" d="M0 0L0.521477 0L394.824 0L403.606 0L1024 0L1024 368.25L1024 409.721L1024 475.525L589 475.965L446.113 476.013C421.006 476.035 395.509 475.154 370.45 476.429C370.325 471.157 370.883 465.742 370.247 460.507L41.2451 460.39C40.7015 465.859 41.1686 471.495 41.0918 476.994Q20.5467 476.739 0 476.792L0 409.911L0 368.114L0 101.292L0 84.3308L0 0Z"/>
	<path fill="#C99570" d="M277.764 368.088L1024 368.25L1024 409.721L285.159 408.98C283.472 395.316 280.333 381.617 277.764 368.088Z"/>
	<path fill="#FEFEFE" d="M285.159 408.98L1024 409.721L1024 475.525L589 475.965L446.113 476.013C421.006 476.035 395.509 475.154 370.45 476.429C370.325 471.157 370.883 465.742 370.247 460.507C369.868 456.977 368.497 453.946 365.915 451.457C364.195 449.798 361.845 448.4 359.488 447.926C353.168 446.652 345.203 447.59 338.723 447.619L292.287 447.954C290.559 434.965 287.68 421.852 285.159 408.98Z"/>
	<path fill="#CE5604" d="M0 0L0.521477 0L394.824 0L403.606 0L403.774 84.0199L511.537 83.9912C503.713 92.6164 496.489 101.64 489.148 110.673C477.062 125.542 467.725 138.49 447.067 139.578C427.02 140.634 406.556 139.797 386.457 139.816L282.759 139.879C264.444 139.885 246.069 139.551 227.762 139.959L227.924 266.053C255.151 284.726 263.416 297.082 269.83 329.391Q273.532 348.794 277.764 368.088C280.333 381.617 283.472 395.316 285.159 408.98C287.68 421.852 290.559 434.965 292.287 447.954L338.723 447.619C345.203 447.59 353.168 446.652 359.488 447.926C361.845 448.4 364.195 449.798 365.915 451.457C368.497 453.946 369.868 456.977 370.247 460.507L41.2451 460.39C40.7015 465.859 41.1686 471.495 41.0918 476.994Q20.5467 476.739 0 476.792L0 409.911L0 368.114L0 101.292L0 84.3308L0 0Z"/>
	<path fill="#FAB688" d="M187.669 275.209C205.261 273.847 223.376 281.003 236.97 291.789Q238.32 292.879 239.617 294.033Q240.913 295.187 242.152 296.402Q243.391 297.617 244.57 298.891Q245.748 300.165 246.864 301.494Q247.98 302.823 249.031 304.205Q250.081 305.586 251.063 307.017Q252.046 308.448 252.958 309.924Q253.87 311.4 254.71 312.919Q255.549 314.438 256.315 315.996Q257.08 317.553 257.769 319.146Q258.459 320.739 259.07 322.363Q259.682 323.987 260.214 325.639Q260.746 327.291 261.198 328.966Q261.65 330.642 262.02 332.337Q262.391 334.033 262.679 335.744Q262.967 337.456 263.172 339.179C265.236 357.235 259.544 376.527 248.269 390.71C236.154 405.953 219.52 415.684 200.125 417.972C180.377 419.003 163.324 413.936 147.989 401.089Q146.62 399.923 145.31 398.69Q144 397.457 142.753 396.161Q141.506 394.864 140.325 393.507Q139.144 392.151 138.032 390.737Q136.92 389.323 135.88 387.856Q134.839 386.388 133.873 384.871Q132.907 383.354 132.017 381.791Q131.128 380.228 130.317 378.622Q129.506 377.016 128.776 375.372Q128.046 373.729 127.398 372.05Q126.751 370.372 126.187 368.664Q125.624 366.956 125.146 365.222Q124.669 363.487 124.278 361.732Q123.887 359.976 123.584 358.203Q123.28 356.43 123.066 354.644Q122.851 352.858 122.725 351.064C121.287 332.599 127.318 312.622 139.438 298.529C151.894 284.047 168.849 276.665 187.669 275.209Z"/>
	<path fill="#01011E" d="M235.554 296.468L237.177 297.862L237.221 298.802C224.496 313.506 212.425 329.289 198.751 343.1C198.762 343.354 198.712 343.619 198.784 343.863C199.505 346.318 200.591 347.504 199.985 350.306C199.485 352.619 198.018 354.313 196.008 355.493C193.019 357.249 190.505 356.866 187.303 355.959C186.3 355.095 185.321 354.238 184.625 353.096C183.46 351.187 183.036 348.787 183.66 346.622C184.291 344.431 186.026 342.705 188.04 341.726C190.975 340.299 193.269 340.809 196.261 341.761C209.246 326.68 221.895 310.934 235.554 296.468Z"/>
	<path fill="#FEFEFE" d="M0 0L0.521477 0L394.824 0C394.373 27.9781 395.196 55.981 394.83 83.9578L126.009 84.0413L44.7054 84.0059C30.0462 83.9788 15.2645 83.5513 0.617566 84.0033L0 84.3308L0 0Z"/>
	<path fill="#AD6E44" d="M0 0L0.521477 0L0.552617 55.7257C0.559448 65.1185 0.234683 74.6274 0.617566 84.0033L0 84.3308L0 0Z"/>
	<path fill="#FEFEFE" d="M0 101.292C6.97761 108.606 26.8399 133.391 33.7967 136.843C38.4937 139.174 44.1473 139.665 49.3105 139.785C85.7217 140.63 122.283 139.775 158.715 139.923Q158.349 202.568 158.611 265.212C137.19 277.763 123.917 291.716 117.35 316.25C112.822 333.165 111.773 351.156 107.752 368.187L102.503 398.867C101.881 402.502 101.603 407.454 100.297 410.845C98.0548 423.547 96.0763 436.352 93.4544 448.979C83.6296 448.884 61.4463 447.664 53.0894 449.159C49.915 449.727 46.8662 451.011 44.5362 453.289C42.5757 455.206 41.6108 457.705 41.2451 460.39C40.7015 465.859 41.1686 471.495 41.0918 476.994Q20.5467 476.739 0 476.792L0 409.911L0 368.114L0 101.292Z"/>
	<path fill="#C99570" d="M0 368.114L107.752 368.187L102.503 398.867C101.881 402.502 101.603 407.454 100.297 410.845L99.8334 410.31C95.0876 408.989 79.8072 409.846 74.1934 409.83L0 409.911L0 368.114Z"/>
	<path fill="#FEFEFE" d="M0 409.911L74.1934 409.83C79.8072 409.846 95.0876 408.989 99.8334 410.31L100.297 410.845C98.0548 423.547 96.0763 436.352 93.4544 448.979C83.6296 448.884 61.4463 447.664 53.0894 449.159C49.915 449.727 46.8662 451.011 44.5362 453.289C42.5757 455.206 41.6108 457.705 41.2451 460.39C40.7015 465.859 41.1686 471.495 41.0918 476.994Q20.5467 476.739 0 476.792L0 409.911Z"/>
</svg>
